<svg width="99" height="77" viewBox="0 0 99 77" fill="none" xmlns="http://www.w3.org/2000/svg">
<path fill-rule="evenodd" clip-rule="evenodd" d="M32.045 67.2779C32.0321 67.8288 31.6788 69.0247 30.7325 69.4298C29.5334 69.9451 27.3718 69.9127 26.6588 69.2321C26.1111 68.7071 25.8421 67.858 25.8 67.4205C25.6996 66.3899 25.7514 65.5992 25.8259 64.5524C24.2542 64.5589 23.619 64.6075 22.4263 64.6528C21.1786 64.6982 19.9569 64.7501 19.111 64.7598C18.6735 66.6492 19.1013 69.6793 19.6522 71.128C19.8532 71.6562 20.5143 72.9979 21.4898 73.8859C22.6726 74.9651 24.5782 75.6716 26.3186 75.9211C27.9454 76.1512 30.5802 75.9567 32.2395 75.678C35.1108 75.1952 36.54 73.2345 37.7035 71.3483C38.3614 70.2789 38.8378 68.2696 38.8669 67.1158C38.9091 65.3366 38.6595 64.0079 37.778 62.407C37.2951 61.5255 36.4234 60.4171 35.6099 59.7236C34.5502 58.8162 33.6946 58.0935 32.2525 56.9008C30.6418 55.5689 28.5871 54.1235 27.6116 52.8077C26.6135 51.466 26.3704 49.8521 26.8403 48.29C27.3524 46.5919 30.0779 46.6469 30.9723 47.24C31.7404 47.7456 31.9543 48.5882 31.99 49.2525C32.045 50.2864 31.9835 51.7706 31.8506 52.7947C33.9085 52.8207 35.9632 52.7656 37.6711 52.6878C38.0178 50.7725 38.3678 47.6937 37.5479 45.7298C37.3308 45.2048 37.0488 44.5826 36.3099 43.9149C35.1335 42.852 33.1955 41.8214 31.4585 41.5718C29.8316 41.3418 27.8514 41.2543 26.2019 41.5913C23.6319 42.1195 21.7652 43.633 20.686 45.5678C20.1934 46.446 19.8823 48.2187 19.8272 49.1845C19.7332 50.8535 19.9601 52.8822 21.0749 54.7716C22.018 56.3661 24.3546 58.2361 25.6542 59.5486C27.025 60.9292 28.7038 62.057 30.0098 63.4699C31.5038 65.0903 32.0807 65.9524 32.0515 67.2779H32.045ZM89.1091 65.9232C89.1382 67.6473 89.1804 69.0247 89.2517 69.5497C89.2517 69.5497 91.6596 69.4752 92.9073 69.4363C94.3106 69.3909 98.7602 69.2839 98.7602 69.2839C98.7894 70.1557 98.9255 71.3743 98.9255 72.2752C98.9255 73.1113 98.9611 74.0706 99 74.8938C97.1884 74.9878 94.1874 75.0688 92.2559 75.0688C88.6845 75.0688 85.7289 75.2794 82.3326 75.2114C82.258 74.4012 82.2451 72.946 82.2191 72.2007C82.1089 69.1511 81.9664 66.8857 82.0312 63.4116C82.1025 59.6134 81.9242 56.2365 81.9761 52.4188C81.989 51.5179 82.2613 45.8335 82.2483 43.4483C83.5576 43.4094 86.6299 43.2895 89.7443 43.2927C92.7777 43.2927 96.9842 43.2149 98.1801 43.2798C98.219 43.7399 98.2643 44.8418 98.2935 45.746C98.3227 46.6891 98.3389 47.953 98.3778 48.5817C97.5741 48.6206 94.9782 48.7113 93.0304 48.7308C91.1637 48.7502 89.7767 48.8183 88.947 48.9285C88.8822 51.8322 89.0443 53.5531 89.054 56.5541C89.0572 57.7759 89.0605 59.4287 89.0702 61.1528C90.117 61.1171 91.2253 61.0685 91.9675 61.0491C92.7129 61.0264 94.7448 61.0329 95.4319 61.0264C95.487 61.8431 95.5032 62.2741 95.5615 63.3111C95.5939 63.8815 95.6523 64.9866 95.636 65.651C94.0675 65.7255 90.8202 65.8584 89.1123 65.9167L89.1091 65.9232ZM72.7592 75.1336C72.7592 75.1336 73.3815 72.7905 74.2533 69.2353C74.8301 66.889 75.4718 64.6399 76.1394 61.9468C77.5394 56.2948 78.7256 51.6443 79.4256 48.5882C79.7334 47.2465 80.3362 44.8386 80.5987 43.4774C79.6686 43.4159 78.0515 43.377 77.238 43.3899C76.1491 43.4061 74.1982 43.4645 74.1009 43.4353C74.1009 43.4353 73.5889 45.4835 73.4171 46.1317C72.7528 48.6174 71.9717 52.1563 71.7578 53.1901C71.2912 55.4263 70.818 57.4809 70.3351 59.4481C69.7874 61.6616 69.2657 63.8459 69.2657 63.8459C69.2657 63.8459 68.2999 59.8273 67.8073 57.5814C67.2888 55.2286 66.5142 52.0688 65.9276 49.6188C65.3897 47.3729 64.3818 43.364 64.3818 43.364C64.3818 43.364 61.9382 43.3446 60.7521 43.3543C59.6243 43.364 57.8029 43.4321 57.8029 43.4321C57.8029 43.4321 58.8108 47.8882 60.0942 53.041C61.1345 57.2249 62.3044 61.613 62.9493 64.1862C63.3998 65.988 63.9378 68.1756 64.4531 70.0974C65.2341 73.0303 65.6619 75.1595 65.6619 75.1595C65.6619 75.1595 68.0568 75.1952 69.3499 75.2146C70.8828 75.2341 72.7625 75.1303 72.7625 75.1303L72.7592 75.1336ZM46.8847 69.4136C47.6236 69.3779 48.5569 69.3326 49.0301 69.3164C50.2227 69.271 51.5158 69.1316 52.945 69.0765C53.214 69.0668 53.5348 69.0571 53.8783 69.0474C54.2283 71.29 54.8733 75.179 54.8733 75.179C54.8733 75.179 57.7997 75.166 58.9372 75.153C60.0196 75.1433 62.3336 75.0752 62.3336 75.0752C62.3336 75.0752 60.9498 68.921 60.0002 64.6431C59.0409 60.3329 58.4932 58.1939 57.9423 55.8476C57.5242 54.0651 56.6784 50.7854 56.2668 48.9771C55.7872 46.8641 54.9608 43.3446 54.9608 43.3446C53.1459 43.3511 51.4445 43.3737 50.2389 43.4029C47.8991 43.458 45.8736 43.4159 45.8736 43.4159C45.8736 43.4159 45.2999 46.0182 44.493 49.3044C43.9193 51.6507 43.1642 55.2869 42.6425 57.3934C41.842 60.6278 40.8665 65.3334 40.1665 68.464C39.8651 69.8025 38.841 73.7984 38.5915 75.1563C39.4859 75.2146 41.129 75.2146 41.91 75.2016C42.9536 75.1822 45.2513 75.2438 45.8509 75.2114C45.8509 75.2114 46.4634 71.7988 46.8847 69.4201V69.4136ZM0.0064816 69.9256C0.0064816 69.9256 7.35662 69.8867 8.62377 69.8576C9.73213 69.8316 14.4086 69.7506 15.5202 69.702C15.585 70.1136 15.6045 70.8039 15.6304 71.1701C15.666 71.6595 15.6596 72.2298 15.6725 72.5085C15.6725 72.5085 12.2956 72.5572 11.1451 72.5572C10.121 72.5572 5.20473 72.5312 4.2973 72.5636C3.45794 72.5928 0.149077 72.5539 0.149077 72.5539C0.0453712 71.6335 0.0259264 70.9983 0.0064816 69.9224V69.9256ZM2.29773 60.2453C1.55234 60.2648 0.703254 60.2842 0.181485 60.3102C0.139354 59.9666 0.158799 59.2407 0.16204 58.9458C0.165281 58.5472 0.181485 58.1064 0.20093 57.8342C0.20093 57.8342 1.82133 57.831 2.63477 57.831C3.35747 57.831 4.56305 57.8472 5.23389 57.8536C5.8302 57.8601 7.61912 57.886 7.61912 57.886C7.62885 58.6314 7.60292 59.2537 7.5932 60.1222C7.5932 60.1222 6.63716 60.1449 5.60335 60.1708C5.62927 61.3245 5.67788 63.1718 5.72974 64.3644C5.77835 65.5084 5.86585 67.3589 5.89178 68.6488C5.14963 68.6844 3.20191 68.7136 2.30097 68.7233C2.30745 67.952 2.31717 66.9311 2.29773 66.3251C2.2718 65.4922 2.31393 63.9982 2.31069 63.7065C2.29449 62.4815 2.32041 61.4931 2.30097 60.268V60.2486L2.29773 60.2453ZM16.029 63.3047C16.0452 64.4033 15.9026 65.4922 15.7438 66.3348C15.6142 67.0154 15.2836 67.8288 14.373 68.2436C13.3327 68.72 10.9636 68.7654 9.7937 68.2436C8.721 67.764 8.42933 66.9441 8.23812 66.2603C7.96265 65.288 7.87191 63.363 7.87839 62.4134C7.88811 61.0393 7.97561 60.106 8.61081 59.1986C9.15851 58.4208 10.8988 58.0513 12.2535 58.061C12.6748 58.0643 13.2743 58.2036 13.66 58.3171C14.4345 58.5472 15.1183 59.056 15.41 59.8046C15.9447 61.1852 16.0063 61.8463 16.0322 63.3111L16.029 63.3047ZM13.472 62.65C13.5206 63.1491 13.5174 63.9463 13.472 64.5102C13.4364 64.938 13.2905 65.5311 12.9535 65.7482C12.5711 65.9945 11.4011 65.9848 11.0414 65.7093C10.6784 65.4306 10.5196 65.045 10.4548 64.6982C10.3673 64.2056 10.3155 63.282 10.3252 62.8672C10.3382 62.3972 10.322 61.9597 10.6039 61.3796C10.8632 60.8481 12.3183 60.5856 12.8239 60.9324C13.2646 61.2338 13.3878 61.8301 13.472 62.65ZM53.1459 64.5394C52.6695 61.7037 52.0991 58.4111 51.8301 56.8069C51.4899 54.7749 50.8158 51.372 50.8158 51.372L50.1287 51.398C50.1287 51.398 49.2505 55.7082 48.6606 59.3217C48.4597 60.5467 48.0384 62.8121 47.6625 64.9186C49.0204 64.8214 50.456 64.7014 51.4996 64.6496C51.9695 64.6237 52.5431 64.5848 53.1427 64.5394H53.1459ZM15.666 56.324C15.666 56.324 8.3159 56.2851 7.04874 56.3013C5.94039 56.3175 1.26391 56.3499 0.152318 56.3856C0.0875016 55.974 0.0680568 55.2837 0.0421304 54.9175C0.0064816 54.4281 0.0129632 53.8577 0 53.5758C0 53.5758 3.37692 53.5661 4.5274 53.5758C5.55149 53.5823 10.471 53.6633 11.3752 53.6438C12.2178 53.6244 15.5234 53.6957 15.5234 53.6957C15.6271 54.6161 15.6466 55.2545 15.666 56.3272V56.324ZM9.09045 31.7814C9.24277 37.1222 9.44046 44.9617 9.55712 48.8021C7.05198 48.8928 2.86487 49.0678 0.0064816 49.0516C0.103706 46.1608 0.0550936 36.3866 0.0875017 34.2444C0.116669 32.287 0.0907424 26.3206 0.0777792 25.4035C0.0291672 21.5275 0.256023 18.1117 0.129632 14.2324C0.016204 10.6967 0.256023 6.92444 0.268987 3.70957C0.268987 2.95446 0.285191 2.14102 0.424545 1.38915C3.88248 1.10396 12.0979 0.97109 15.4716 0.97109C17.2994 0.97109 19.448 0.912755 21.305 0.893311C21.2759 1.96277 21.2597 3.16187 21.2759 4.07578C21.2888 4.93783 21.2046 7.04111 21.1754 7.92909L8.48118 8.35364C8.4909 10.1264 8.70479 20.1372 8.89276 25.7697C9.7937 25.7405 10.5747 25.7114 11.0479 25.6822C12.61 25.5947 15.4068 25.5202 17.0531 25.4229C17.16 26.3498 17.16 27.3545 17.1762 28.1582C17.1957 29.2341 17.1989 31.1624 17.2411 31.2629C17.2411 31.2629 12.0007 31.5545 10.6752 31.6647C10.3673 31.6906 9.78722 31.7328 9.09045 31.7846V31.7814ZM73.9875 21.508C73.9486 25.0891 74.1463 28.0966 74.1301 31.8008C74.1204 34.0499 74.3602 38.0135 74.6227 40.8686C79.9668 41.17 87.6604 40.1232 91.3063 38.5385C95.0365 36.9213 96.7152 34.0791 97.0879 31.8106C97.9079 26.797 98.3356 23.3423 97.9403 18.1895C97.6518 14.4172 97.2435 10.1717 95.38 7.51751C93.0855 4.25726 86.6039 2.66927 80.7154 2.3063C78.8681 2.19287 75.7213 2.08917 74.0523 2.49427C74.0945 4.34476 73.8352 7.74112 73.9583 10.6092C74.1107 14.119 74.0264 18.4325 73.994 21.5113L73.9875 21.508ZM45.3161 19.8812C45.5138 23.3812 45.1184 29.1304 44.6485 31.6031C44.2661 33.6092 42.8726 37.1676 40.0369 38.707C36.8576 40.4343 30.2983 40.7033 26.8565 39.1607C23.6967 37.7477 22.1087 34.374 21.5481 32.3615C20.43 28.3623 20.2842 21.3233 20.4462 17.5381C20.618 13.5 21.1171 10.8134 23.2009 8.30178C24.9736 6.16285 30.0487 4.79848 33.7562 4.81144C34.9942 4.81468 37.2012 5.17765 38.2901 5.63784C40.1924 6.44156 41.9878 8.01335 43.0605 10.1102C44.4022 12.7352 45.0601 15.438 45.3161 19.8812ZM72.2731 22.9048C72.2699 26.5054 71.8421 29.9244 71.4013 31.911C70.9055 34.1375 70.0532 36.8889 67.3179 38.3019C63.604 40.2237 57.3103 40.8232 53.7098 38.8787C50.55 37.1741 49.0268 34.0532 48.4111 31.8041C47.2379 27.5197 47.1277 21.2099 47.1601 18.5038C47.199 14.9876 47.3514 10.5963 50.0121 7.16426C52.501 3.95587 59.1608 2.5526 64.5179 4.09522C68.167 5.14848 69.6481 7.00546 70.5263 9.45875C72.15 13.9926 72.2828 18.0566 72.2764 22.9016L72.2731 22.9048ZM81.2177 15.6195C81.2858 19.0742 81.4284 24.5544 81.4964 26.6026C81.5256 27.4614 81.7978 31.5643 81.9242 33.7064C86.0044 33.3305 88.8109 32.0633 89.5466 30.3814C90.6128 27.941 90.6679 23.5692 90.5512 19.9816C90.4702 17.5057 90.1947 13.6426 89.0799 12.0125C87.9683 10.3889 83.5381 9.45875 81.2339 9.78931C81.2339 11.8634 81.1918 14.3653 81.2177 15.6195ZM37.9854 18.3969C38.41 21.2131 38.4003 24.8428 38.2317 26.8683C38.1053 28.3948 37.3664 30.699 35.853 31.7457C34.5081 32.6758 31.5751 32.9578 30.2302 32.0471C28.7103 31.0166 28.169 29.7429 27.8223 28.142C27.3102 25.7665 27.1482 20.0529 27.1871 18.5589C27.2325 16.8737 27.5403 14.9681 28.3862 13.6718C29.5464 11.8991 33.4094 10.8879 35.2178 12.1292C36.7961 13.2148 37.5188 15.3149 37.9854 18.4001V18.3969ZM65.1596 22.3636C65.0008 28.4952 64.5244 30.3619 63.0044 31.6258C61.4488 32.9221 58.2567 32.8995 56.8793 31.7198C55.4793 30.5175 54.9672 28.6702 54.7112 27.1211C54.264 24.4377 54.17 21.7965 54.17 19.4761C54.17 16.5529 54.1149 14.6278 55.3756 12.3722C56.5876 10.2041 60.3275 9.75366 61.8928 10.6157C63.2896 11.3838 63.9767 13.0949 64.2975 14.3783C64.9197 16.8769 65.2211 20.0302 65.1628 22.3636H65.1596Z" fill="#FF6600"/>
</svg>
